<?xml version="1.0" encoding="UTF-8"?>
<svg id="Layer_1" data-name="Layer 1" xmlns="http://www.w3.org/2000/svg" viewBox="0 0 298.55 80.34">
  <defs>
    <style>
      .cls-1 {
        fill: #fff;
      }
    </style>
  </defs>
  <g>
    <path class="cls-1" d="M236.75,14.81c3.47-1.98,7.98,1.79,6.64,5.55-.74,3.38-5.57,4.6-7.84,2.01-2.24-2.1-1.57-6.26,1.2-7.56Z"/>
    <path class="cls-1" d="M98.58,15.06c7.93.04,15.86-.12,23.79.07,5.9.12,11.9,3.07,14.83,8.33,4.66,8.4,2.93,20.88-5.73,26.03-7.26,4.17-15.96,2.12-23.91,2.64,0,4.43,0,8.86,0,13.3-2.99.02-5.98.02-8.98,0,.01-16.79.01-33.58.01-50.37ZM107.56,23.32c0,6.84,0,13.68,0,20.52,4.6-.03,9.21.14,13.82-.05,3.35-.08,6.73-1.92,8.21-5,2.74-5.33.64-13.4-5.64-15-5.39-.98-10.93-.28-16.39-.47Z"/>
    <path class="cls-1" d="M261.68,15.06c3.15-.02,6.3-.02,9.46.01,5.73,16.79,11.5,33.57,17.24,50.37-3.11-.01-6.21,0-9.31.05-1.55-4.42-2.82-8.93-4.28-13.38-5.59.01-11.18.01-16.76,0-1.45,4.31-2.63,8.7-4.12,12.98-2.99.84-6.36.13-9.49.34,5.75-16.79,11.52-33.57,17.26-50.37ZM260.61,43.86h11.52c-1.92-6.09-3.79-12.18-5.77-18.24-1.97,6.06-3.85,12.15-5.75,18.24Z"/>
    <path class="cls-1" d="M289.58,15.05c2.99,0,5.98,0,8.97.01,0,16.79,0,33.58,0,50.37-2.99.02-5.98.02-8.98,0,.01-16.79,0-33.58.01-50.38Z"/>
    <path class="cls-1" d="M146.18,33.22c3.53-3.36,8.54-4.26,13.24-4.43.01,2.6,0,5.2-.01,7.8-4.08.02-8.73,2.27-9.04,6.83-.41,7.32-.06,14.67-.17,22.01-2.88.02-5.75.02-8.63,0,.03-6.69-.04-13.38.03-20.06.01-4.41,1.22-9.09,4.58-12.15Z"/>
    <path class="cls-1" d="M164.86,33.88c5.59-5.29,14.43-6.13,21.38-3.28,6,2.39,9.92,8.55,10.29,14.9.37,6.63.07,13.29.16,19.93-2.87.01-5.75.01-8.62,0,.01-.82.04-2.47.06-3.3-7.5,6.84-21.04,4.4-25.96-4.4-4.16-7.38-3.54-17.77,2.69-23.85ZM173.64,37.77c-5.57,2.41-6.64,9.85-4.5,14.95,2.79,6.84,13.79,7.35,17.4,1.01,2.03-3.74,2.05-8.56.05-12.32-2.43-4.47-8.53-5.56-12.95-3.64Z"/>
    <path class="cls-1" d="M198.5,29.45c3.3-.02,6.6-.01,9.89-.01,2.39,3.54,4.71,7.12,7.1,10.65,2.37-3.54,4.69-7.11,7.06-10.65,3.3,0,6.6-.01,9.9.01-3.95,6-7.92,11.99-11.86,17.99,3.95,6,7.91,11.99,11.86,17.99-3.3.02-6.6.01-9.9.01-2.37-3.55-4.69-7.11-7.06-10.65-2.38,3.53-4.71,7.11-7.08,10.65-3.3,0-6.6.01-9.9-.01,3.94-6,7.92-11.99,11.86-17.99-3.95-6-7.91-11.99-11.87-17.99Z"/>
    <path class="cls-1" d="M234.57,29.45c2.88-.02,5.75-.02,8.63,0-.01,11.99-.01,23.98,0,35.98-2.88.02-5.75.02-8.63,0,.01-11.99.01-23.99,0-35.98Z"/>
  </g>
  <g>
    <path class="cls-1" d="M38.29,30.87C50.15,20.59,61.98,10.27,73.85,0c-11.85,12.66-23.77,25.27-35.62,37.93-5.97-6.3-11.87-12.67-17.82-18.99-.2-.2-.38-.42-.56-.65,5.93,4.1,11.85,8.22,17.76,12.33.2.11.43.41.68.24Z"/>
    <path class="cls-1" d="M0,3.74c4.01,4.1,8.06,8.17,12.1,12.24,4.3,4.4,8.66,8.75,12.97,13.14,3.78,3.84,7.58,7.66,11.37,11.49.06.18-.17.26-.26.36-6.75,5.63-13.45,11.33-20.21,16.95.85-1.2,1.79-2.34,2.68-3.51,3.62-4.66,7.24-9.33,10.86-13.98C20.07,28.71,10.62,17,1.18,5.28c-.41-.5-.83-.99-1.18-1.54Z"/>
    <path class="cls-1" d="M45.29,36.19c5.46-4.57,10.9-9.18,16.37-13.75-.1.21-.24.39-.38.56-4.33,5.58-8.66,11.16-12.99,16.75-.24.26.14.49.27.7,9.5,11.75,18.98,23.51,28.47,35.26.2.25.44.47.58.77-7.04-7.03-14-14.15-21.02-21.2-4.44-4.5-8.89-9-13.35-13.48-.67-.71-1.36-1.41-2.08-2.07,1.33-1.23,2.77-2.35,4.14-3.54Z"/>
    <path class="cls-1" d="M39.4,42.5c.11.05.2.11.28.2,6.04,6.44,12.12,12.86,18.14,19.32-4.46-3.01-8.85-6.12-13.29-9.15-1.68-1.15-3.34-2.35-5.05-3.46-11.82,10.32-23.68,20.61-35.5,30.93.11-.21.27-.37.43-.54,11.66-12.44,23.33-24.87,34.99-37.3Z"/>
  </g>
</svg>